<svg width="600" height="400" viewBox="0 0 600 400" xmlns="http://www.w3.org/2000/svg">
  <defs>
    <linearGradient id="bgGradient" x1="0%" y1="0%" x2="100%" y2="100%">
      <stop offset="0%" style="stop-color:#11998e;stop-opacity:1" />
      <stop offset="100%" style="stop-color:#38ef7d;stop-opacity:1" />
    </linearGradient>
    <linearGradient id="chartGradient" x1="0%" y1="0%" x2="100%" y2="100%">
      <stop offset="0%" style="stop-color:#667eea;stop-opacity:1" />
      <stop offset="100%" style="stop-color:#764ba2;stop-opacity:1" />
    </linearGradient>
    <filter id="glow">
      <feGaussianBlur stdDeviation="3" result="coloredBlur"/>
      <feMerge> 
        <feMergeNode in="coloredBlur"/>
        <feMergeNode in="SourceGraphic"/>
      </feMerge>
    </filter>
  </defs>
  
  <!-- Background -->
  <rect width="600" height="400" fill="url(#bgGradient)"/>
  
  <!-- Abstract geometric shapes -->
  <circle cx="80" cy="80" r="30" fill="rgba(255,255,255,0.1)" opacity="0.6"/>
  <circle cx="520" cy="100" r="25" fill="rgba(255,255,255,0.1)" opacity="0.4"/>
  <circle cx="100" cy="320" r="20" fill="rgba(255,255,255,0.1)" opacity="0.5"/>
  
  <!-- Analytics Dashboard -->
  <g transform="translate(50, 80)">
    <!-- Main dashboard background -->
    <rect x="0" y="0" width="500" height="280" rx="15" fill="rgba(255,255,255,0.95)" stroke="rgba(255,255,255,0.3)" stroke-width="2"/>
    
    <!-- Header -->
    <rect x="0" y="0" width="500" height="40" rx="15" fill="url(#chartGradient)"/>
    <text x="250" y="25" text-anchor="middle" fill="white" font-family="Arial, sans-serif" font-size="16" font-weight="bold">Analytics Avanzado</text>
    
    <!-- Chart 1 - User Journey -->
    <g transform="translate(30, 60)">
      <text x="0" y="0" fill="#333" font-family="Arial, sans-serif" font-size="12" font-weight="bold">User Journey</text>
      <rect x="0" y="10" width="200" height="80" fill="rgba(102, 126, 234, 0.1)" stroke="#667eea" stroke-width="1"/>
      <circle cx="20" cy="40" r="8" fill="#667eea"/>
      <circle cx="60" cy="30" r="8" fill="#667eea"/>
      <circle cx="100" cy="50" r="8" fill="#667eea"/>
      <circle cx="140" cy="35" r="8" fill="#667eea"/>
      <circle cx="180" cy="45" r="8" fill="#667eea"/>
      <path d="M 28 40 L 52 30 L 92 50 L 132 35 L 172 45" stroke="#667eea" stroke-width="2" fill="none"/>
    </g>
    
    <!-- Chart 2 - Conversion Funnel -->
    <g transform="translate(250, 60)">
      <text x="0" y="0" fill="#333" font-family="Arial, sans-serif" font-size="12" font-weight="bold">Conversion Funnel</text>
      <rect x="0" y="10" width="200" height="80" fill="rgba(56, 239, 125, 0.1)" stroke="#38ef7d" stroke-width="1"/>
      <rect x="20" y="20" width="160" height="15" fill="#38ef7d" opacity="0.8"/>
      <rect x="30" y="40" width="140" height="12" fill="#38ef7d" opacity="0.6"/>
      <rect x="40" y="55" width="120" height="10" fill="#38ef7d" opacity="0.4"/>
      <rect x="50" y="68" width="100" height="8" fill="#38ef7d" opacity="0.2"/>
      <text x="100" y="32" text-anchor="middle" fill="white" font-family="Arial, sans-serif" font-size="10" font-weight="bold">Visitas</text>
      <text x="100" y="47" text-anchor="middle" fill="white" font-family="Arial, sans-serif" font-size="10" font-weight="bold">Leads</text>
      <text x="100" y="61" text-anchor="middle" fill="white" font-family="Arial, sans-serif" font-size="10" font-weight="bold">Oportunidades</text>
      <text x="100" y="74" text-anchor="middle" fill="white" font-family="Arial, sans-serif" font-size="10" font-weight="bold">Ventas</text>
    </g>
    
    <!-- Chart 3 - Heatmap -->
    <g transform="translate(30, 160)">
      <text x="0" y="0" fill="#333" font-family="Arial, sans-serif" font-size="12" font-weight="bold">Heatmap de Clicks</text>
      <rect x="0" y="10" width="200" height="80" fill="rgba(255,255,255,0.5)" stroke="#ccc" stroke-width="1"/>
      <!-- Heatmap cells -->
      <rect x="10" y="20" width="20" height="20" fill="#ff4444" opacity="0.9"/>
      <rect x="35" y="20" width="20" height="20" fill="#ff6666" opacity="0.7"/>
      <rect x="60" y="20" width="20" height="20" fill="#ff8888" opacity="0.5"/>
      <rect x="85" y="20" width="20" height="20" fill="#ffaaaa" opacity="0.3"/>
      <rect x="110" y="20" width="20" height="20" fill="#ffcccc" opacity="0.1"/>
      <rect x="135" y="20" width="20" height="20" fill="#ffeeee" opacity="0.05"/>
      <rect x="160" y="20" width="20" height="20" fill="#ffeeee" opacity="0.05"/>
      <rect x="185" y="20" width="5" height="20" fill="#ffeeee" opacity="0.05"/>
      
      <rect x="10" y="45" width="20" height="20" fill="#ff6666" opacity="0.7"/>
      <rect x="35" y="45" width="20" height="20" fill="#ff4444" opacity="0.9"/>
      <rect x="60" y="45" width="20" height="20" fill="#ff6666" opacity="0.7"/>
      <rect x="85" y="45" width="20" height="20" fill="#ff8888" opacity="0.5"/>
      <rect x="110" y="45" width="20" height="20" fill="#ffaaaa" opacity="0.3"/>
      <rect x="135" y="45" width="20" height="20" fill="#ffcccc" opacity="0.1"/>
      <rect x="160" y="45" width="20" height="20" fill="#ffeeee" opacity="0.05"/>
      <rect x="185" y="45" width="5" height="20" fill="#ffeeee" opacity="0.05"/>
      
      <rect x="10" y="70" width="20" height="20" fill="#ff8888" opacity="0.5"/>
      <rect x="35" y="70" width="20" height="20" fill="#ff6666" opacity="0.7"/>
      <rect x="60" y="70" width="20" height="20" fill="#ff4444" opacity="0.9"/>
      <rect x="85" y="70" width="20" height="20" fill="#ff6666" opacity="0.7"/>
      <rect x="110" y="70" width="20" height="20" fill="#ff8888" opacity="0.5"/>
      <rect x="135" y="70" width="20" height="20" fill="#ffaaaa" opacity="0.3"/>
      <rect x="160" y="70" width="20" height="20" fill="#ffcccc" opacity="0.1"/>
      <rect x="185" y="70" width="5" height="20" fill="#ffeeee" opacity="0.05"/>
    </g>
    
    <!-- Chart 4 - Real-time Metrics -->
    <g transform="translate(250, 160)">
      <text x="0" y="0" fill="#333" font-family="Arial, sans-serif" font-size="12" font-weight="bold">Métricas en Tiempo Real</text>
      <rect x="0" y="10" width="200" height="80" fill="rgba(255,255,255,0.5)" stroke="#ccc" stroke-width="1"/>
      <circle cx="40" cy="50" r="25" fill="none" stroke="#667eea" stroke-width="4"/>
      <path d="M 40 25 A 25 25 0 0 1 65 50" fill="none" stroke="#667eea" stroke-width="4"/>
      <text x="40" y="55" text-anchor="middle" fill="#333" font-family="Arial, sans-serif" font-size="14" font-weight="bold">75%</text>
      <text x="40" y="70" text-anchor="middle" fill="#666" font-family="Arial, sans-serif" font-size="10">Uptime</text>
      
      <circle cx="140" cy="50" r="25" fill="none" stroke="#38ef7d" stroke-width="4"/>
      <path d="M 140 25 A 25 25 0 0 1 165 50" fill="none" stroke="#38ef7d" stroke-width="4"/>
      <text x="140" y="55" text-anchor="middle" fill="#333" font-family="Arial, sans-serif" font-size="14" font-weight="bold">92%</text>
      <text x="140" y="70" text-anchor="middle" fill="#666" font-family="Arial, sans-serif" font-size="10">Performance</text>
    </g>
  </g>
  
  <!-- Analytics Tools -->
  <g transform="translate(50, 380)">
    <!-- Google Analytics -->
    <g transform="translate(0, 0)">
      <rect x="0" y="0" width="80" height="50" rx="8" fill="rgba(255,255,255,0.2)"/>
      <text x="40" y="20" text-anchor="middle" fill="white" font-family="Arial, sans-serif" font-size="10" font-weight="bold">Google</text>
      <text x="40" y="35" text-anchor="middle" fill="white" font-family="Arial, sans-serif" font-size="10">Analytics</text>
    </g>
    
    <!-- Hotjar -->
    <g transform="translate(100, 0)">
      <rect x="0" y="0" width="80" height="50" rx="8" fill="rgba(255,255,255,0.2)"/>
      <text x="40" y="20" text-anchor="middle" fill="white" font-family="Arial, sans-serif" font-size="10" font-weight="bold">Hotjar</text>
      <text x="40" y="35" text-anchor="middle" fill="white" font-family="Arial, sans-serif" font-size="10">Heatmaps</text>
    </g>
    
    <!-- Mixpanel -->
    <g transform="translate(200, 0)">
      <rect x="0" y="0" width="80" height="50" rx="8" fill="rgba(255,255,255,0.2)"/>
      <text x="40" y="20" text-anchor="middle" fill="white" font-family="Arial, sans-serif" font-size="10" font-weight="bold">Mixpanel</text>
      <text x="40" y="35" text-anchor="middle" fill="white" font-family="Arial, sans-serif" font-size="10">Events</text>
    </g>
    
    <!-- Amplitude -->
    <g transform="translate(300, 0)">
      <rect x="0" y="0" width="80" height="50" rx="8" fill="rgba(255,255,255,0.2)"/>
      <text x="40" y="20" text-anchor="middle" fill="white" font-family="Arial, sans-serif" font-size="10" font-weight="bold">Amplitude</text>
      <text x="40" y="35" text-anchor="middle" fill="white" font-family="Arial, sans-serif" font-size="10">Product</text>
    </g>
    
    <!-- Custom -->
    <g transform="translate(400, 0)">
      <rect x="0" y="0" width="80" height="50" rx="8" fill="rgba(255,255,255,0.2)"/>
      <text x="40" y="20" text-anchor="middle" fill="white" font-family="Arial, sans-serif" font-size="10" font-weight="bold">Custom</text>
      <text x="40" y="35" text-anchor="middle" fill="white" font-family="Arial, sans-serif" font-size="10">Dashboard</text>
    </g>
  </g>
  
  <!-- Floating icons -->
  <g transform="translate(30, 200)">
    <circle cx="0" cy="0" r="12" fill="rgba(255,255,255,0.2)"/>
    <text x="0" y="4" text-anchor="middle" fill="white" font-family="Arial, sans-serif" font-size="16">📊</text>
  </g>
  
  <g transform="translate(570, 180)">
    <circle cx="0" cy="0" r="12" fill="rgba(255,255,255,0.2)"/>
    <text x="0" y="4" text-anchor="middle" fill="white" font-family="Arial, sans-serif" font-size="16">📈</text>
  </g>
  
  <!-- Title -->
  <text x="300" y="470" text-anchor="middle" fill="white" font-family="Arial, sans-serif" font-size="24" font-weight="bold">
    Analytics Avanzado
  </text>
</svg>
