<svg width="600" height="400" viewBox="0 0 600 400" xmlns="http://www.w3.org/2000/svg">
  <defs>
    <linearGradient id="bgGradient" x1="0%" y1="0%" x2="100%" y2="100%">
      <stop offset="0%" style="stop-color:#11998e;stop-opacity:1" />
      <stop offset="100%" style="stop-color:#38ef7d;stop-opacity:1" />
    </linearGradient>
    <linearGradient id="chartGradient" x1="0%" y1="0%" x2="100%" y2="100%">
      <stop offset="0%" style="stop-color:#667eea;stop-opacity:1" />
      <stop offset="100%" style="stop-color:#764ba2;stop-opacity:1" />
    </linearGradient>
    <filter id="glow">
      <feGaussianBlur stdDeviation="3" result="coloredBlur"/>
      <feMerge> 
        <feMergeNode in="coloredBlur"/>
        <feMergeNode in="SourceGraphic"/>
      </feMerge>
    </filter>
  </defs>
  
  <!-- Background -->
  <rect width="600" height="400" fill="url(#bgGradient)"/>
  
  <!-- Abstract geometric shapes -->
  <circle cx="80" cy="80" r="30" fill="rgba(255,255,255,0.1)" opacity="0.6"/>
  <circle cx="520" cy="100" r="25" fill="rgba(255,255,255,0.1)" opacity="0.4"/>
  <circle cx="100" cy="320" r="20" fill="rgba(255,255,255,0.1)" opacity="0.5"/>
  
  <!-- Dashboard grid -->
  <g transform="translate(50, 80)">
    <!-- Main dashboard background -->
    <rect x="0" y="0" width="500" height="280" rx="15" fill="rgba(255,255,255,0.95)" stroke="rgba(255,255,255,0.3)" stroke-width="2"/>
    
    <!-- Header -->
    <rect x="0" y="0" width="500" height="40" rx="15" fill="url(#chartGradient)"/>
    <text x="250" y="25" text-anchor="middle" fill="white" font-family="Arial, sans-serif" font-size="16" font-weight="bold">Dashboard Interactivo</text>
    
    <!-- Chart 1 - Sales Trend -->
    <g transform="translate(30, 60)">
      <text x="0" y="0" fill="#333" font-family="Arial, sans-serif" font-size="12" font-weight="bold">Tendencia de Ventas</text>
      <path d="M 0 60 L 30 40 L 60 20 L 90 35 L 120 15 L 150 25 L 180 5" stroke="#38ef7d" stroke-width="3" fill="none"/>
      <circle cx="0" cy="60" r="3" fill="#38ef7d"/>
      <circle cx="30" cy="40" r="3" fill="#38ef7d"/>
      <circle cx="60" cy="20" r="3" fill="#38ef7d"/>
      <circle cx="90" cy="35" r="3" fill="#38ef7d"/>
      <circle cx="120" cy="15" r="3" fill="#38ef7d"/>
      <circle cx="150" cy="25" r="3" fill="#38ef7d"/>
      <circle cx="180" cy="5" r="3" fill="#38ef7d"/>
    </g>
    
    <!-- Chart 2 - Revenue Distribution -->
    <g transform="translate(250, 60)">
      <text x="0" y="0" fill="#333" font-family="Arial, sans-serif" font-size="12" font-weight="bold">Distribución de Ingresos</text>
      <circle cx="40" cy="50" r="35" fill="none" stroke="#667eea" stroke-width="25" stroke-dasharray="80 60 40 30 20"/>
      <circle cx="40" cy="50" r="20" fill="#38ef7d"/>
      <text x="40" y="55" text-anchor="middle" fill="white" font-family="Arial, sans-serif" font-size="12" font-weight="bold">Total</text>
    </g>
    
    <!-- Chart 3 - Customer Metrics -->
    <g transform="translate(30, 180)">
      <text x="0" y="0" fill="#333" font-family="Arial, sans-serif" font-size="12" font-weight="bold">Métricas de Clientes</text>
      <rect x="0" y="10" width="20" height="50" fill="#667eea"/>
      <rect x="25" y="10" width="20" height="70" fill="#667eea"/>
      <rect x="50" y="10" width="20" height="40" fill="#667eea"/>
      <rect x="75" y="10" width="20" height="60" fill="#667eea"/>
      <rect x="100" y="10" width="20" height="80" fill="#667eea"/>
      <rect x="125" y="10" width="20" height="35" fill="#667eea"/>
    </g>
    
    <!-- Chart 4 - Real-time Activity -->
    <g transform="translate(250, 180)">
      <text x="0" y="0" fill="#333" font-family="Arial, sans-serif" font-size="12" font-weight="bold">Actividad en Tiempo Real</text>
      <rect x="0" y="10" width="200" height="60" fill="rgba(102, 126, 234, 0.1)" stroke="#667eea" stroke-width="1"/>
      <circle cx="20" cy="40" r="3" fill="#667eea"/>
      <circle cx="40" cy="35" r="3" fill="#667eea"/>
      <circle cx="60" cy="45" r="3" fill="#667eea"/>
      <circle cx="80" cy="30" r="3" fill="#667eea"/>
      <circle cx="100" cy="50" r="3" fill="#667eea"/>
      <circle cx="120" cy="25" r="3" fill="#667eea"/>
      <circle cx="140" cy="40" r="3" fill="#667eea"/>
      <circle cx="160" cy="35" r="3" fill="#667eea"/>
      <circle cx="180" cy="45" r="3" fill="#667eea"/>
    </g>
  </g>
  
  <!-- KPI Cards -->
  <g transform="translate(50, 380)">
    <!-- Revenue -->
    <rect x="0" y="0" width="120" height="60" rx="10" fill="url(#chartGradient)" opacity="0.9"/>
    <text x="60" y="20" text-anchor="middle" fill="white" font-family="Arial, sans-serif" font-size="12" font-weight="bold">Ingresos</text>
    <text x="60" y="40" text-anchor="middle" fill="white" font-family="Arial, sans-serif" font-size="18" font-weight="bold">$2.5M</text>
    <text x="60" y="55" text-anchor="middle" fill="white" font-family="Arial, sans-serif" font-size="10">+12% vs mes anterior</text>
  </g>
  
  <!-- Customers -->
  <g transform="translate(190, 380)">
    <rect x="0" y="0" width="120" height="60" rx="10" fill="url(#chartGradient)" opacity="0.9"/>
    <text x="60" y="20" text-anchor="middle" fill="white" font-family="Arial, sans-serif" font-size="12" font-weight="bold">Clientes</text>
    <text x="60" y="40" text-anchor="middle" fill="white" font-family="Arial, sans-serif" font-size="18" font-weight="bold">15.2K</text>
    <text x="60" y="55" text-anchor="middle" fill="white" font-family="Arial, sans-serif" font-size="10">+8% vs mes anterior</text>
  </g>
  
  <!-- Conversion -->
  <g transform="translate(330, 380)">
    <rect x="0" y="0" width="120" height="60" rx="10" fill="url(#chartGradient)" opacity="0.9"/>
    <text x="60" y="20" text-anchor="middle" fill="white" font-family="Arial, sans-serif" font-size="12" font-weight="bold">Conversión</text>
    <text x="60" y="40" text-anchor="middle" fill="white" font-family="Arial, sans-serif" font-size="18" font-weight="bold">3.8%</text>
    <text x="60" y="55" text-anchor="middle" fill="white" font-family="Arial, sans-serif" font-size="10">+0.5% vs mes anterior</text>
  </g>
  
  <!-- Floating icons -->
  <g transform="translate(30, 200)">
    <circle cx="0" cy="0" r="12" fill="rgba(255,255,255,0.2)"/>
    <text x="0" y="4" text-anchor="middle" fill="white" font-family="Arial, sans-serif" font-size="16">📊</text>
  </g>
  
  <g transform="translate(570, 180)">
    <circle cx="0" cy="0" r="12" fill="rgba(255,255,255,0.2)"/>
    <text x="0" y="4" text-anchor="middle" fill="white" font-family="Arial, sans-serif" font-size="16">📈</text>
  </g>
  
  <!-- Title -->
  <text x="300" y="470" text-anchor="middle" fill="white" font-family="Arial, sans-serif" font-size="24" font-weight="bold">
    Dashboards Interactivos
  </text>
</svg>
