<svg width="32" height="32" viewBox="0 0 32 32" fill="none" xmlns="http://www.w3.org/2000/svg">
  <rect width="32" height="32" rx="8" fill="#1A1A1A"/>
  <path d="M8 16C8 11.5817 11.5817 8 16 8C20.4183 8 24 11.5817 24 16C24 20.4183 20.4183 24 16 24C11.5817 24 8 20.4183 8 16Z" fill="url(#gradient)"/>
  <path d="M12 12C12 10.8954 12.8954 10 14 10H18C19.1046 10 20 10.8954 20 12V20C20 21.1046 19.1046 22 18 22H14C12.8954 22 12 21.1046 12 20V12Z" fill="url(#gradient2)"/>
  <defs>
    <linearGradient id="gradient" x1="0%" y1="0%" x2="100%" y2="100%">
      <stop offset="0%" style="stop-color:#2979FF"/>
      <stop offset="100%" style="stop-color:#9C27B0"/>
    </linearGradient>
    <linearGradient id="gradient2" x1="0%" y1="0%" x2="100%" y2="100%">
      <stop offset="0%" style="stop-color:#9C27B0"/>
      <stop offset="100%" style="stop-color:#2979FF"/>
    </linearGradient>
  </defs>
</svg>
